<mxfile host="65bd71144e">
    <diagram id="ezGQYY76CnPRP2FsOGGO" name="Page-1">
        <mxGraphModel dx="1347" dy="1039" grid="1" gridSize="10" guides="1" tooltips="1" connect="1" arrows="1" fold="1" page="1" pageScale="1" pageWidth="1169" pageHeight="827" math="0" shadow="0">
            <root>
                <mxCell id="0"/>
                <mxCell id="1" parent="0"/>
                <mxCell id="2" value="Toolbar" style="rounded=0;whiteSpace=wrap;html=1;" parent="1" vertex="1">
                    <mxGeometry x="45" y="41" width="240" height="738" as="geometry"/>
                </mxCell>
                <mxCell id="3" value="Navigation" style="rounded=0;whiteSpace=wrap;html=1;" parent="1" vertex="1">
                    <mxGeometry x="285" y="41" width="840" height="60" as="geometry"/>
                </mxCell>
                <mxCell id="4" value="" style="rounded=0;whiteSpace=wrap;html=1;" parent="1" vertex="1">
                    <mxGeometry x="285" y="101" width="840" height="678" as="geometry"/>
                </mxCell>
                <mxCell id="5" value="" style="rounded=1;whiteSpace=wrap;html=1;arcSize=2;fillStyle=hatch;gradientColor=none;fillColor=#FFFFFF;" parent="1" vertex="1">
                    <mxGeometry x="305" y="121" width="50" height="50" as="geometry"/>
                </mxCell>
                <mxCell id="7" value="&lt;font style=&quot;font-size: 22px;&quot;&gt;PROJECT_NAME&lt;/font&gt;" style="rounded=0;whiteSpace=wrap;html=1;fillStyle=auto;fillColor=none;gradientColor=none;align=left;strokeColor=none;fontSize=22;verticalAlign=middle;" parent="1" vertex="1">
                    <mxGeometry x="365" y="121" width="170" height="50" as="geometry"/>
                </mxCell>
                <mxCell id="55" value="Summary" style="text;html=1;align=center;verticalAlign=middle;resizable=0;points=[];autosize=1;strokeColor=none;fillColor=none;" parent="1" vertex="1">
                    <mxGeometry x="305" y="191" width="70" height="30" as="geometry"/>
                </mxCell>
                <mxCell id="56" value="Board" style="text;html=1;align=center;verticalAlign=middle;resizable=0;points=[];autosize=1;strokeColor=none;fillColor=none;" parent="1" vertex="1">
                    <mxGeometry x="375" y="191" width="60" height="30" as="geometry"/>
                </mxCell>
                <mxCell id="57" value="List" style="text;html=1;align=center;verticalAlign=middle;resizable=0;points=[];autosize=1;strokeColor=none;fillColor=none;" parent="1" vertex="1">
                    <mxGeometry x="435" y="191" width="40" height="30" as="geometry"/>
                </mxCell>
                <mxCell id="58" value="Teams" style="text;html=1;align=center;verticalAlign=middle;resizable=0;points=[];autosize=1;strokeColor=none;fillColor=none;" parent="1" vertex="1">
                    <mxGeometry x="475" y="191" width="60" height="30" as="geometry"/>
                </mxCell>
                <mxCell id="59" value="Calendar" style="text;html=1;align=center;verticalAlign=middle;resizable=0;points=[];autosize=1;strokeColor=none;fillColor=none;" parent="1" vertex="1">
                    <mxGeometry x="535" y="191" width="70" height="30" as="geometry"/>
                </mxCell>
                <mxCell id="95" value="" style="rounded=1;whiteSpace=wrap;html=1;fillStyle=auto;fillColor=none;" parent="1" vertex="1">
                    <mxGeometry x="431.25" y="193.25" width="47.5" height="25.5" as="geometry"/>
                </mxCell>
                <mxCell id="129" value="Issues" style="text;html=1;align=center;verticalAlign=middle;resizable=0;points=[];autosize=1;strokeColor=none;fillColor=none;fontSize=18;" vertex="1" parent="1">
                    <mxGeometry x="305" y="246" width="80" height="40" as="geometry"/>
                </mxCell>
                <mxCell id="130" value="Create&lt;br style=&quot;font-size: 12px;&quot;&gt;Issue" style="rounded=1;whiteSpace=wrap;html=1;fontSize=12;" vertex="1" parent="1">
                    <mxGeometry x="1035" y="241" width="70" height="50" as="geometry"/>
                </mxCell>
                <mxCell id="131" value="" style="rounded=1;whiteSpace=wrap;html=1;fontSize=12;" vertex="1" parent="1">
                    <mxGeometry x="305" y="311" width="800" height="70" as="geometry"/>
                </mxCell>
                <mxCell id="132" value="Filters" style="rounded=1;whiteSpace=wrap;html=1;fontSize=12;" vertex="1" parent="1">
                    <mxGeometry x="325" y="331" width="70" height="30" as="geometry"/>
                </mxCell>
                <mxCell id="133" value="Search" style="rounded=1;whiteSpace=wrap;html=1;fontSize=12;" vertex="1" parent="1">
                    <mxGeometry x="1015" y="331" width="70" height="30" as="geometry"/>
                </mxCell>
                <mxCell id="134" value="" style="rounded=1;whiteSpace=wrap;html=1;fontSize=12;arcSize=2;" vertex="1" parent="1">
                    <mxGeometry x="305" y="401" width="800" height="350" as="geometry"/>
                </mxCell>
                <mxCell id="135" value="" style="ellipse;whiteSpace=wrap;html=1;fontSize=12;fillColor=#FFFFFF;fillStyle=hatch;" vertex="1" parent="1">
                    <mxGeometry x="325" y="450" width="20" height="20" as="geometry"/>
                </mxCell>
                <mxCell id="136" value="Created By" style="text;html=1;align=left;verticalAlign=middle;resizable=0;points=[];autosize=1;strokeColor=none;fillColor=none;fontSize=12;" vertex="1" parent="1">
                    <mxGeometry x="325" y="411" width="80" height="30" as="geometry"/>
                </mxCell>
                <mxCell id="137" value="Issue ID" style="text;html=1;align=center;verticalAlign=middle;resizable=0;points=[];autosize=1;strokeColor=none;fillColor=none;fontSize=12;" vertex="1" parent="1">
                    <mxGeometry x="455" y="411" width="70" height="30" as="geometry"/>
                </mxCell>
                <mxCell id="138" value="USER_NAME" style="text;html=1;align=left;verticalAlign=middle;resizable=0;points=[];autosize=1;strokeColor=none;fillColor=none;fontSize=6;" vertex="1" parent="1">
                    <mxGeometry x="355" y="441" width="60" height="20" as="geometry"/>
                </mxCell>
                <mxCell id="139" value="USER_EMAIL" style="text;html=1;align=left;verticalAlign=middle;resizable=0;points=[];autosize=1;strokeColor=none;fillColor=none;fontSize=6;" vertex="1" parent="1">
                    <mxGeometry x="355" y="461" width="60" height="20" as="geometry"/>
                </mxCell>
                <mxCell id="140" value="ISSUE_ID" style="text;html=1;align=center;verticalAlign=middle;resizable=0;points=[];autosize=1;strokeColor=none;fillColor=none;fontSize=6;" vertex="1" parent="1">
                    <mxGeometry x="465" y="450" width="50" height="20" as="geometry"/>
                </mxCell>
                <mxCell id="141" value="Title" style="text;html=1;align=left;verticalAlign=middle;resizable=0;points=[];autosize=1;strokeColor=none;fillColor=none;fontSize=12;" vertex="1" parent="1">
                    <mxGeometry x="535" y="411" width="50" height="30" as="geometry"/>
                </mxCell>
                <mxCell id="142" value="ISSUE_TITLE" style="text;html=1;align=left;verticalAlign=middle;resizable=0;points=[];autosize=1;strokeColor=none;fillColor=none;fontSize=6;" vertex="1" parent="1">
                    <mxGeometry x="535" y="450" width="60" height="20" as="geometry"/>
                </mxCell>
                <mxCell id="143" value="Issue ID" style="text;html=1;align=center;verticalAlign=middle;resizable=0;points=[];autosize=1;strokeColor=none;fillColor=none;fontSize=12;" vertex="1" parent="1">
                    <mxGeometry x="645" y="411" width="70" height="30" as="geometry"/>
                </mxCell>
                <mxCell id="144" value="ISSUE_ID" style="text;html=1;align=center;verticalAlign=middle;resizable=0;points=[];autosize=1;strokeColor=none;fillColor=none;fontSize=6;" vertex="1" parent="1">
                    <mxGeometry x="655" y="450" width="50" height="20" as="geometry"/>
                </mxCell>
                <mxCell id="145" value="Asignee" style="text;html=1;align=left;verticalAlign=middle;resizable=0;points=[];autosize=1;strokeColor=none;fillColor=none;fontSize=12;" vertex="1" parent="1">
                    <mxGeometry x="745" y="411" width="70" height="30" as="geometry"/>
                </mxCell>
                <mxCell id="146" value="ASSIGNER_NAME" style="text;html=1;align=left;verticalAlign=middle;resizable=0;points=[];autosize=1;strokeColor=none;fillColor=none;fontSize=6;" vertex="1" parent="1">
                    <mxGeometry x="745" y="450" width="80" height="20" as="geometry"/>
                </mxCell>
                <mxCell id="147" value="Priority" style="text;html=1;align=center;verticalAlign=middle;resizable=0;points=[];autosize=1;strokeColor=none;fillColor=none;fontSize=12;" vertex="1" parent="1">
                    <mxGeometry x="860" y="411" width="60" height="30" as="geometry"/>
                </mxCell>
                <mxCell id="148" value="ISSUE_PRIORITY" style="text;html=1;align=center;verticalAlign=middle;resizable=0;points=[];autosize=1;strokeColor=none;fillColor=none;fontSize=6;" vertex="1" parent="1">
                    <mxGeometry x="855" y="450" width="70" height="20" as="geometry"/>
                </mxCell>
                <mxCell id="149" value="Status" style="text;html=1;align=center;verticalAlign=middle;resizable=0;points=[];autosize=1;strokeColor=none;fillColor=none;fontSize=12;" vertex="1" parent="1">
                    <mxGeometry x="930" y="411" width="60" height="30" as="geometry"/>
                </mxCell>
                <mxCell id="150" value="ISSUE_STATUS" style="text;html=1;align=center;verticalAlign=middle;resizable=0;points=[];autosize=1;strokeColor=none;fillColor=none;fontSize=6;" vertex="1" parent="1">
                    <mxGeometry x="925" y="450" width="70" height="20" as="geometry"/>
                </mxCell>
                <mxCell id="151" value="Creation Date" style="text;html=1;align=left;verticalAlign=middle;resizable=0;points=[];autosize=1;strokeColor=none;fillColor=none;fontSize=12;" vertex="1" parent="1">
                    <mxGeometry x="1005" y="411" width="100" height="30" as="geometry"/>
                </mxCell>
                <mxCell id="152" value="CREATION_DATE" style="text;html=1;align=left;verticalAlign=middle;resizable=0;points=[];autosize=1;strokeColor=none;fillColor=none;fontSize=6;" vertex="1" parent="1">
                    <mxGeometry x="1005" y="450" width="70" height="20" as="geometry"/>
                </mxCell>
                <mxCell id="153" value="" style="ellipse;whiteSpace=wrap;html=1;fontSize=12;fillColor=#FFFFFF;fillStyle=hatch;" vertex="1" parent="1">
                    <mxGeometry x="325" y="500" width="20" height="20" as="geometry"/>
                </mxCell>
                <mxCell id="154" value="USER_NAME" style="text;html=1;align=left;verticalAlign=middle;resizable=0;points=[];autosize=1;strokeColor=none;fillColor=none;fontSize=6;" vertex="1" parent="1">
                    <mxGeometry x="355" y="491" width="60" height="20" as="geometry"/>
                </mxCell>
                <mxCell id="155" value="USER_EMAIL" style="text;html=1;align=left;verticalAlign=middle;resizable=0;points=[];autosize=1;strokeColor=none;fillColor=none;fontSize=6;" vertex="1" parent="1">
                    <mxGeometry x="355" y="511" width="60" height="20" as="geometry"/>
                </mxCell>
                <mxCell id="156" value="ISSUE_ID" style="text;html=1;align=center;verticalAlign=middle;resizable=0;points=[];autosize=1;strokeColor=none;fillColor=none;fontSize=6;" vertex="1" parent="1">
                    <mxGeometry x="465" y="500" width="50" height="20" as="geometry"/>
                </mxCell>
                <mxCell id="157" value="ISSUE_TITLE" style="text;html=1;align=left;verticalAlign=middle;resizable=0;points=[];autosize=1;strokeColor=none;fillColor=none;fontSize=6;" vertex="1" parent="1">
                    <mxGeometry x="535" y="500" width="60" height="20" as="geometry"/>
                </mxCell>
                <mxCell id="158" value="ISSUE_ID" style="text;html=1;align=center;verticalAlign=middle;resizable=0;points=[];autosize=1;strokeColor=none;fillColor=none;fontSize=6;" vertex="1" parent="1">
                    <mxGeometry x="655" y="500" width="50" height="20" as="geometry"/>
                </mxCell>
                <mxCell id="159" value="ASSIGNER_NAME" style="text;html=1;align=left;verticalAlign=middle;resizable=0;points=[];autosize=1;strokeColor=none;fillColor=none;fontSize=6;" vertex="1" parent="1">
                    <mxGeometry x="745" y="500" width="80" height="20" as="geometry"/>
                </mxCell>
                <mxCell id="160" value="ISSUE_PRIORITY" style="text;html=1;align=center;verticalAlign=middle;resizable=0;points=[];autosize=1;strokeColor=none;fillColor=none;fontSize=6;" vertex="1" parent="1">
                    <mxGeometry x="855" y="500" width="70" height="20" as="geometry"/>
                </mxCell>
                <mxCell id="161" value="ISSUE_STATUS" style="text;html=1;align=center;verticalAlign=middle;resizable=0;points=[];autosize=1;strokeColor=none;fillColor=none;fontSize=6;" vertex="1" parent="1">
                    <mxGeometry x="925" y="500" width="70" height="20" as="geometry"/>
                </mxCell>
                <mxCell id="162" value="CREATION_DATE" style="text;html=1;align=left;verticalAlign=middle;resizable=0;points=[];autosize=1;strokeColor=none;fillColor=none;fontSize=6;" vertex="1" parent="1">
                    <mxGeometry x="1005" y="500" width="70" height="20" as="geometry"/>
                </mxCell>
                <mxCell id="163" value="" style="ellipse;whiteSpace=wrap;html=1;fontSize=12;fillColor=#FFFFFF;fillStyle=hatch;" vertex="1" parent="1">
                    <mxGeometry x="325" y="550" width="20" height="20" as="geometry"/>
                </mxCell>
                <mxCell id="164" value="USER_NAME" style="text;html=1;align=left;verticalAlign=middle;resizable=0;points=[];autosize=1;strokeColor=none;fillColor=none;fontSize=6;" vertex="1" parent="1">
                    <mxGeometry x="355" y="541" width="60" height="20" as="geometry"/>
                </mxCell>
                <mxCell id="165" value="USER_EMAIL" style="text;html=1;align=left;verticalAlign=middle;resizable=0;points=[];autosize=1;strokeColor=none;fillColor=none;fontSize=6;" vertex="1" parent="1">
                    <mxGeometry x="355" y="561" width="60" height="20" as="geometry"/>
                </mxCell>
                <mxCell id="166" value="ISSUE_ID" style="text;html=1;align=center;verticalAlign=middle;resizable=0;points=[];autosize=1;strokeColor=none;fillColor=none;fontSize=6;" vertex="1" parent="1">
                    <mxGeometry x="465" y="550" width="50" height="20" as="geometry"/>
                </mxCell>
                <mxCell id="167" value="ISSUE_TITLE" style="text;html=1;align=left;verticalAlign=middle;resizable=0;points=[];autosize=1;strokeColor=none;fillColor=none;fontSize=6;" vertex="1" parent="1">
                    <mxGeometry x="535" y="550" width="60" height="20" as="geometry"/>
                </mxCell>
                <mxCell id="168" value="ISSUE_ID" style="text;html=1;align=center;verticalAlign=middle;resizable=0;points=[];autosize=1;strokeColor=none;fillColor=none;fontSize=6;" vertex="1" parent="1">
                    <mxGeometry x="655" y="550" width="50" height="20" as="geometry"/>
                </mxCell>
                <mxCell id="169" value="ASSIGNER_NAME" style="text;html=1;align=left;verticalAlign=middle;resizable=0;points=[];autosize=1;strokeColor=none;fillColor=none;fontSize=6;" vertex="1" parent="1">
                    <mxGeometry x="745" y="550" width="80" height="20" as="geometry"/>
                </mxCell>
                <mxCell id="170" value="ISSUE_PRIORITY" style="text;html=1;align=center;verticalAlign=middle;resizable=0;points=[];autosize=1;strokeColor=none;fillColor=none;fontSize=6;" vertex="1" parent="1">
                    <mxGeometry x="855" y="550" width="70" height="20" as="geometry"/>
                </mxCell>
                <mxCell id="171" value="ISSUE_STATUS" style="text;html=1;align=center;verticalAlign=middle;resizable=0;points=[];autosize=1;strokeColor=none;fillColor=none;fontSize=6;" vertex="1" parent="1">
                    <mxGeometry x="925" y="550" width="70" height="20" as="geometry"/>
                </mxCell>
                <mxCell id="172" value="CREATION_DATE" style="text;html=1;align=left;verticalAlign=middle;resizable=0;points=[];autosize=1;strokeColor=none;fillColor=none;fontSize=6;" vertex="1" parent="1">
                    <mxGeometry x="1005" y="550" width="70" height="20" as="geometry"/>
                </mxCell>
                <mxCell id="173" value="" style="ellipse;whiteSpace=wrap;html=1;fontSize=12;fillColor=#FFFFFF;fillStyle=hatch;" vertex="1" parent="1">
                    <mxGeometry x="325" y="600" width="20" height="20" as="geometry"/>
                </mxCell>
                <mxCell id="174" value="USER_NAME" style="text;html=1;align=left;verticalAlign=middle;resizable=0;points=[];autosize=1;strokeColor=none;fillColor=none;fontSize=6;" vertex="1" parent="1">
                    <mxGeometry x="355" y="591" width="60" height="20" as="geometry"/>
                </mxCell>
                <mxCell id="175" value="USER_EMAIL" style="text;html=1;align=left;verticalAlign=middle;resizable=0;points=[];autosize=1;strokeColor=none;fillColor=none;fontSize=6;" vertex="1" parent="1">
                    <mxGeometry x="355" y="611" width="60" height="20" as="geometry"/>
                </mxCell>
                <mxCell id="176" value="ISSUE_ID" style="text;html=1;align=center;verticalAlign=middle;resizable=0;points=[];autosize=1;strokeColor=none;fillColor=none;fontSize=6;" vertex="1" parent="1">
                    <mxGeometry x="465" y="600" width="50" height="20" as="geometry"/>
                </mxCell>
                <mxCell id="177" value="ISSUE_TITLE" style="text;html=1;align=left;verticalAlign=middle;resizable=0;points=[];autosize=1;strokeColor=none;fillColor=none;fontSize=6;" vertex="1" parent="1">
                    <mxGeometry x="535" y="600" width="60" height="20" as="geometry"/>
                </mxCell>
                <mxCell id="178" value="ISSUE_ID" style="text;html=1;align=center;verticalAlign=middle;resizable=0;points=[];autosize=1;strokeColor=none;fillColor=none;fontSize=6;" vertex="1" parent="1">
                    <mxGeometry x="655" y="600" width="50" height="20" as="geometry"/>
                </mxCell>
                <mxCell id="179" value="ASSIGNER_NAME" style="text;html=1;align=left;verticalAlign=middle;resizable=0;points=[];autosize=1;strokeColor=none;fillColor=none;fontSize=6;" vertex="1" parent="1">
                    <mxGeometry x="745" y="600" width="80" height="20" as="geometry"/>
                </mxCell>
                <mxCell id="180" value="ISSUE_PRIORITY" style="text;html=1;align=center;verticalAlign=middle;resizable=0;points=[];autosize=1;strokeColor=none;fillColor=none;fontSize=6;" vertex="1" parent="1">
                    <mxGeometry x="855" y="600" width="70" height="20" as="geometry"/>
                </mxCell>
                <mxCell id="181" value="ISSUE_STATUS" style="text;html=1;align=center;verticalAlign=middle;resizable=0;points=[];autosize=1;strokeColor=none;fillColor=none;fontSize=6;" vertex="1" parent="1">
                    <mxGeometry x="925" y="600" width="70" height="20" as="geometry"/>
                </mxCell>
                <mxCell id="182" value="CREATION_DATE" style="text;html=1;align=left;verticalAlign=middle;resizable=0;points=[];autosize=1;strokeColor=none;fillColor=none;fontSize=6;" vertex="1" parent="1">
                    <mxGeometry x="1005" y="600" width="70" height="20" as="geometry"/>
                </mxCell>
                <mxCell id="183" value="" style="ellipse;whiteSpace=wrap;html=1;fontSize=12;fillColor=#FFFFFF;fillStyle=hatch;" vertex="1" parent="1">
                    <mxGeometry x="325" y="650" width="20" height="20" as="geometry"/>
                </mxCell>
                <mxCell id="184" value="USER_NAME" style="text;html=1;align=left;verticalAlign=middle;resizable=0;points=[];autosize=1;strokeColor=none;fillColor=none;fontSize=6;" vertex="1" parent="1">
                    <mxGeometry x="355" y="641" width="60" height="20" as="geometry"/>
                </mxCell>
                <mxCell id="185" value="USER_EMAIL" style="text;html=1;align=left;verticalAlign=middle;resizable=0;points=[];autosize=1;strokeColor=none;fillColor=none;fontSize=6;" vertex="1" parent="1">
                    <mxGeometry x="355" y="661" width="60" height="20" as="geometry"/>
                </mxCell>
                <mxCell id="186" value="ISSUE_ID" style="text;html=1;align=center;verticalAlign=middle;resizable=0;points=[];autosize=1;strokeColor=none;fillColor=none;fontSize=6;" vertex="1" parent="1">
                    <mxGeometry x="465" y="650" width="50" height="20" as="geometry"/>
                </mxCell>
                <mxCell id="187" value="ISSUE_TITLE" style="text;html=1;align=left;verticalAlign=middle;resizable=0;points=[];autosize=1;strokeColor=none;fillColor=none;fontSize=6;" vertex="1" parent="1">
                    <mxGeometry x="535" y="650" width="60" height="20" as="geometry"/>
                </mxCell>
                <mxCell id="188" value="ISSUE_ID" style="text;html=1;align=center;verticalAlign=middle;resizable=0;points=[];autosize=1;strokeColor=none;fillColor=none;fontSize=6;" vertex="1" parent="1">
                    <mxGeometry x="655" y="650" width="50" height="20" as="geometry"/>
                </mxCell>
                <mxCell id="189" value="ASSIGNER_NAME" style="text;html=1;align=left;verticalAlign=middle;resizable=0;points=[];autosize=1;strokeColor=none;fillColor=none;fontSize=6;" vertex="1" parent="1">
                    <mxGeometry x="745" y="650" width="80" height="20" as="geometry"/>
                </mxCell>
                <mxCell id="190" value="ISSUE_PRIORITY" style="text;html=1;align=center;verticalAlign=middle;resizable=0;points=[];autosize=1;strokeColor=none;fillColor=none;fontSize=6;" vertex="1" parent="1">
                    <mxGeometry x="855" y="650" width="70" height="20" as="geometry"/>
                </mxCell>
                <mxCell id="191" value="ISSUE_STATUS" style="text;html=1;align=center;verticalAlign=middle;resizable=0;points=[];autosize=1;strokeColor=none;fillColor=none;fontSize=6;" vertex="1" parent="1">
                    <mxGeometry x="925" y="650" width="70" height="20" as="geometry"/>
                </mxCell>
                <mxCell id="192" value="CREATION_DATE" style="text;html=1;align=left;verticalAlign=middle;resizable=0;points=[];autosize=1;strokeColor=none;fillColor=none;fontSize=6;" vertex="1" parent="1">
                    <mxGeometry x="1005" y="650" width="70" height="20" as="geometry"/>
                </mxCell>
                <mxCell id="193" value="" style="ellipse;whiteSpace=wrap;html=1;fontSize=12;fillColor=#FFFFFF;fillStyle=hatch;" vertex="1" parent="1">
                    <mxGeometry x="325" y="700" width="20" height="20" as="geometry"/>
                </mxCell>
                <mxCell id="194" value="USER_NAME" style="text;html=1;align=left;verticalAlign=middle;resizable=0;points=[];autosize=1;strokeColor=none;fillColor=none;fontSize=6;" vertex="1" parent="1">
                    <mxGeometry x="355" y="691" width="60" height="20" as="geometry"/>
                </mxCell>
                <mxCell id="195" value="USER_EMAIL" style="text;html=1;align=left;verticalAlign=middle;resizable=0;points=[];autosize=1;strokeColor=none;fillColor=none;fontSize=6;" vertex="1" parent="1">
                    <mxGeometry x="355" y="711" width="60" height="20" as="geometry"/>
                </mxCell>
                <mxCell id="196" value="ISSUE_ID" style="text;html=1;align=center;verticalAlign=middle;resizable=0;points=[];autosize=1;strokeColor=none;fillColor=none;fontSize=6;" vertex="1" parent="1">
                    <mxGeometry x="465" y="700" width="50" height="20" as="geometry"/>
                </mxCell>
                <mxCell id="197" value="ISSUE_TITLE" style="text;html=1;align=left;verticalAlign=middle;resizable=0;points=[];autosize=1;strokeColor=none;fillColor=none;fontSize=6;" vertex="1" parent="1">
                    <mxGeometry x="535" y="700" width="60" height="20" as="geometry"/>
                </mxCell>
                <mxCell id="198" value="ISSUE_ID" style="text;html=1;align=center;verticalAlign=middle;resizable=0;points=[];autosize=1;strokeColor=none;fillColor=none;fontSize=6;" vertex="1" parent="1">
                    <mxGeometry x="655" y="700" width="50" height="20" as="geometry"/>
                </mxCell>
                <mxCell id="199" value="ASSIGNER_NAME" style="text;html=1;align=left;verticalAlign=middle;resizable=0;points=[];autosize=1;strokeColor=none;fillColor=none;fontSize=6;" vertex="1" parent="1">
                    <mxGeometry x="745" y="700" width="80" height="20" as="geometry"/>
                </mxCell>
                <mxCell id="200" value="ISSUE_PRIORITY" style="text;html=1;align=center;verticalAlign=middle;resizable=0;points=[];autosize=1;strokeColor=none;fillColor=none;fontSize=6;" vertex="1" parent="1">
                    <mxGeometry x="855" y="700" width="70" height="20" as="geometry"/>
                </mxCell>
                <mxCell id="201" value="ISSUE_STATUS" style="text;html=1;align=center;verticalAlign=middle;resizable=0;points=[];autosize=1;strokeColor=none;fillColor=none;fontSize=6;" vertex="1" parent="1">
                    <mxGeometry x="925" y="700" width="70" height="20" as="geometry"/>
                </mxCell>
                <mxCell id="202" value="CREATION_DATE" style="text;html=1;align=left;verticalAlign=middle;resizable=0;points=[];autosize=1;strokeColor=none;fillColor=none;fontSize=6;" vertex="1" parent="1">
                    <mxGeometry x="1005" y="700" width="70" height="20" as="geometry"/>
                </mxCell>
            </root>
        </mxGraphModel>
    </diagram>
</mxfile>